<svg xmlns="http://www.w3.org/2000/svg" xmlns:xlink="http://www.w3.org/1999/xlink" width="900" zoomAndPan="magnify" viewBox="0 0 675 525.000007" height="700" preserveAspectRatio="xMidYMid meet" version="1.0"><defs><clipPath id="02a33bfe37"><path d="M 46 12 L 622 12 L 622 524 L 46 524 Z M 46 12 " clip-rule="nonzero"/></clipPath><clipPath id="eccb73f01c"><path d="M 59 15 L 527 15 L 527 524 L 59 524 Z M 59 15 " clip-rule="nonzero"/></clipPath><clipPath id="d8680bfee7"><path d="M 46 18 L 621 18 L 621 524 L 46 524 Z M 46 18 " clip-rule="nonzero"/></clipPath><clipPath id="e63dc3077b"><path d="M 73 218 L 595 218 L 595 524 L 73 524 Z M 73 218 " clip-rule="nonzero"/></clipPath><clipPath id="5d13cb635c"><path d="M 71 325 L 598 325 L 598 524 L 71 524 Z M 71 325 " clip-rule="nonzero"/></clipPath><clipPath id="41e684eaf4"><path d="M 42 9 L 629 9 L 629 524 L 42 524 Z M 42 9 " clip-rule="nonzero"/></clipPath></defs><g clip-path="url(#02a33bfe37)"><path fill="#ffffff" d="M 98.523438 524.824219 C 98.523438 524.824219 95.285156 524.824219 91.371094 503.363281 C 86.378906 476.503906 97.445312 426.703125 99.066406 422.789062 C 87.730469 414.285156 44.007812 373.390625 46.167969 316.84375 C 48.328125 260.292969 90.5625 203.203125 90.5625 203.203125 C 90.5625 203.203125 96.90625 83.21875 160.460938 15.199219 C 183.539062 17.492188 248.847656 73.773438 260.722656 84.300781 C 290.816406 75.121094 376.503906 76.335938 408.347656 84.027344 C 408.347656 84.027344 451.796875 34.226562 511.710938 17.898438 C 521.832031 21.539062 590.113281 135.992188 577.429688 204.28125 C 597.9375 222.90625 667.703125 328.988281 571.761719 427.78125 C 590.113281 479.339844 578.507812 524.957031 578.507812 524.957031 Z M 98.523438 524.824219 C 98.523438 524.824219 91.371094 521.179688 89.484375 508.085938 C 85.300781 479.472656 97.175781 427.511719 99.066406 422.65625 C 87.730469 414.285156 44.007812 373.390625 46.167969 316.84375 C 48.328125 260.292969 90.5625 203.203125 90.5625 203.203125 C 90.5625 203.203125 94.207031 80.25 157.761719 12.09375 C 180.839844 14.386719 250.199219 70.800781 262.074219 81.464844 C 292.164062 72.289062 376.636719 76.203125 408.484375 83.894531 C 408.484375 83.894531 452.070312 31.257812 512.117188 14.925781 C 522.238281 18.570312 590.382812 135.855469 577.5625 204.148438 C 598.074219 222.773438 667.839844 328.855469 571.894531 427.648438 C 590.246094 479.203125 577.429688 524.824219 577.429688 524.824219 Z M 98.523438 524.824219 " fill-opacity="1" fill-rule="nonzero"/></g><g clip-path="url(#eccb73f01c)"><path fill="#efb07d" d="M 301.339844 79.710938 C 301.339844 79.710938 380.683594 168.113281 277.726562 249.496094 C 174.765625 330.878906 43.875 289.847656 61.550781 254.757812 C 61.550781 254.757812 78.6875 211.300781 94.882812 201.042969 C 85.03125 174.996094 108.242188 102.113281 129.425781 58.925781 C 129.425781 58.925781 150.746094 18.167969 160.460938 15.199219 C 170.179688 12.226562 233.195312 56.089844 258.5625 79.441406 C 274.757812 81.464844 301.339844 79.710938 301.339844 79.710938 Z M 505.773438 380.003906 C 493.226562 360.4375 458.546875 332.226562 452.878906 371.773438 C 438.84375 360.707031 422.921875 365.566406 424.945312 391.613281 C 414.960938 381.492188 391.34375 378.789062 388.375 423.597656 C 385.40625 468.40625 409.292969 525.09375 409.292969 525.09375 L 526.960938 525.09375 C 526.824219 525.09375 518.324219 399.710938 505.773438 380.003906 Z M 505.773438 380.003906 " fill-opacity="1" fill-rule="nonzero"/></g><g clip-path="url(#d8680bfee7)"><path fill="#ef5454" d="M 156.277344 130.457031 C 156.277344 130.457031 136.847656 160.417969 120.925781 187.410156 C 120.519531 94.421875 166.398438 53.933594 166.398438 53.933594 C 154.796875 79.171875 156.277344 130.457031 156.277344 130.457031 Z M 512.925781 130.457031 C 512.925781 130.457031 530.605469 160.417969 546.390625 187.410156 C 546.796875 94.421875 500.917969 53.933594 500.917969 53.933594 C 512.65625 79.171875 512.925781 130.457031 512.925781 130.457031 Z M 120.925781 372.042969 C 45.089844 313.332031 74.773438 231.140625 74.773438 231.140625 C 33.078125 275.949219 36.992188 370.558594 85.707031 418.066406 C 89.214844 421.441406 93.128906 424.679688 97.308594 427.78125 C 104.328125 410.238281 114.179688 387.5625 120.925781 372.042969 Z M 591.730469 231.140625 C 591.730469 231.140625 621.015625 312.253906 546.933594 370.964844 C 553.140625 386.078125 563.53125 410.914062 570.949219 426.433594 C 574.460938 423.734375 577.832031 420.898438 580.800781 418.066406 C 629.378906 370.558594 633.292969 275.949219 591.730469 231.140625 Z M 152.230469 433.855469 C 152.230469 433.855469 158.304688 396.472656 181.78125 401.464844 C 191.09375 403.488281 195.546875 414.691406 191.5 425.355469 C 201.484375 407.132812 211.335938 409.292969 215.519531 410.644531 C 219.703125 411.992188 228.878906 419.011719 224.019531 435.207031 C 234.542969 418.335938 247.902344 423.734375 250.738281 428.457031 C 253.570312 433.046875 259.914062 439.523438 243.316406 489.460938 C 235.21875 512 230.363281 525.09375 230.363281 525.09375 L 145.484375 525.09375 Z M 523.722656 525.09375 L 438.84375 525.09375 C 438.84375 525.09375 433.988281 512 425.890625 489.460938 C 409.292969 439.523438 415.632812 433.046875 418.46875 428.457031 C 421.300781 423.867188 434.660156 418.335938 445.1875 435.207031 C 440.195312 419.011719 449.371094 411.992188 453.6875 410.640625 C 457.871094 409.292969 467.722656 407.132812 477.707031 425.355469 C 473.660156 414.691406 478.113281 403.488281 487.421875 401.464844 C 510.902344 396.472656 516.976562 433.855469 516.976562 433.855469 Z M 390.804688 463.144531 L 388.511719 448.027344 C 371.507812 450.863281 353.292969 454.234375 333.859375 454.234375 C 314.429688 454.234375 296.347656 450.863281 279.210938 448.027344 L 276.914062 463.144531 C 276.914062 463.144531 272.191406 480.285156 266.390625 495.941406 C 289.734375 501.742188 333.726562 503.363281 333.726562 503.363281 C 333.726562 503.363281 377.714844 501.742188 401.0625 495.941406 C 396.472656 479.203125 390.804688 463.144531 390.804688 463.144531 Z M 440.867188 92.667969 C 440.867188 92.667969 479.460938 40.164062 511.171875 22.214844 C 512.386719 17.625 493.765625 14.117188 466.371094 35.171875 C 438.980469 56.363281 407.539062 83.757812 407.539062 83.757812 Z M 229.550781 92.667969 C 229.550781 92.667969 210.121094 40.570312 159.246094 22.214844 C 159.789062 16.953125 177.328125 16.953125 199.863281 31.257812 C 222.398438 45.5625 266.121094 82.816406 266.121094 82.816406 Z M 229.550781 92.667969 " fill-opacity="0.298" fill-rule="nonzero"/></g><path fill="#ffffff" d="M 157.761719 17.898438 C 157.761719 17.898438 109.050781 108.324219 112.421875 208.195312 C 83.410156 231.140625 68.296875 254.757812 52.914062 294.304688 C 52.375 270.28125 66.679688 243.015625 90.5625 203.335938 C 94.207031 152.457031 105.40625 64.863281 157.761719 17.898438 Z M 91.777344 422.25 C 91.777344 422.25 96.769531 422.789062 100.683594 404.839844 C 51.699219 355.710938 52.105469 296.867188 52.105469 296.867188 C 26.464844 353.011719 91.777344 422.25 91.777344 422.25 Z M 616.964844 296.867188 C 616.964844 296.867188 617.371094 355.710938 568.386719 404.839844 C 572.300781 422.925781 577.292969 422.25 577.292969 422.25 C 577.292969 422.25 642.605469 353.011719 616.964844 296.867188 Z M 616.964844 296.867188 " fill-opacity="1" fill-rule="nonzero"/><g clip-path="url(#e63dc3077b)"><path fill="#89e3f7" d="M 243.179688 218.589844 C 243.179688 218.589844 211.335938 258.671875 182.457031 310.363281 C 148.859375 370.828125 148.992188 525.09375 148.992188 525.09375 L 73.425781 525.09375 C 73.425781 525.09375 73.289062 372.179688 115.257812 307.125 C 157.761719 241.128906 175.304688 240.992188 175.304688 240.992188 Z M 424.8125 218.589844 C 424.8125 218.589844 456.65625 258.671875 485.535156 310.363281 C 519.132812 370.691406 519 525.09375 519 525.09375 L 594.566406 525.09375 C 594.566406 525.09375 594.699219 372.179688 552.734375 307.125 C 510.226562 241.128906 492.6875 240.992188 492.6875 240.992188 Z M 424.8125 218.589844 " fill-opacity="1" fill-rule="nonzero"/></g><g clip-path="url(#5d13cb635c)"><path fill="#2b0806" d="M 597.804688 525.09375 L 523.722656 525.09375 C 523.722656 525.09375 511.171875 395.796875 507.257812 359.492188 C 568.117188 547.089844 540.453125 366.105469 535.191406 338.839844 C 552.597656 371.90625 562.585938 494.457031 573.917969 461.660156 C 585.121094 428.863281 555.972656 323.457031 557.320312 325.613281 C 595.78125 385.269531 597.804688 525.09375 597.804688 525.09375 Z M 71.402344 525.09375 L 145.484375 525.09375 C 145.484375 525.09375 158.035156 395.796875 161.945312 359.492188 C 101.089844 547.089844 128.75 366.105469 134.015625 338.839844 C 116.605469 371.90625 106.621094 494.457031 95.285156 461.660156 C 84.085938 428.863281 113.234375 323.589844 111.882812 325.613281 C 73.5625 385.269531 71.402344 525.09375 71.402344 525.09375 Z M 71.402344 525.09375 " fill-opacity="0.2" fill-rule="nonzero"/></g><g clip-path="url(#41e684eaf4)"><path fill="#2b0806" d="M 380.414062 162.984375 C 371.507812 157.585938 378.121094 144.222656 387.027344 149.621094 C 394.449219 155.019531 399.171875 161.09375 411.992188 163.386719 C 416.308594 164.199219 420.222656 165.546875 420.222656 169.460938 C 420.359375 173.242188 414.554688 174.320312 410.238281 173.644531 C 400.117188 172.027344 389.1875 168.382812 380.414062 162.984375 Z M 592 413.476562 C 663.925781 328.3125 611.566406 238.832031 584.851562 204.148438 C 581.746094 84.300781 523.453125 7.371094 508.742188 9.125 C 458.816406 22.484375 410.777344 71.476562 403.761719 78.765625 C 375.019531 71.207031 348.433594 70.398438 335.34375 70.667969 C 322.257812 70.53125 295.671875 71.207031 266.929688 78.765625 C 259.777344 71.476562 211.738281 22.484375 161.8125 9.125 C 146.96875 7.371094 88.808594 84.164062 85.570312 204.011719 C 58.988281 238.5625 7.035156 327.371094 77.472656 412.128906 C 76.125 420.765625 74.910156 429.941406 73.964844 439.390625 C 70.59375 475.964844 66.679688 504.039062 64.789062 524.957031 L 75.855469 524.957031 C 75.855469 524.957031 78.148438 438.582031 95.015625 371.636719 C 112.289062 303.480469 157.761719 256.378906 168.425781 245.984375 C 170.582031 245.582031 172.878906 245.175781 175.441406 244.5 C 192.984375 240.183594 214.167969 235.324219 231.171875 229.925781 C 206.882812 256.109375 158.304688 321.566406 148.316406 434.53125 C 144.945312 473.265625 141.03125 502.824219 139.140625 524.957031 L 150.070312 524.957031 C 150.070312 524.957031 151.691406 461.523438 161.945312 399.441406 C 168.019531 383.917969 173.957031 373.933594 182.863281 365.160156 C 200.539062 347.75 218.21875 361.785156 211.738281 385.132812 C 217.136719 376.632812 223.210938 367.453125 232.25 372.175781 C 243.449219 377.847656 240.210938 400.386719 240.210938 400.386719 C 240.210938 400.386719 254.109375 386.347656 262.34375 390.128906 C 275.566406 396.203125 279.480469 422.25 269.496094 467.191406 C 267.335938 477.179688 260.992188 500.527344 254.109375 524.957031 L 265.851562 524.957031 C 267.066406 520.503906 268.011719 516.859375 268.550781 514.429688 L 268.683594 513.890625 L 271.789062 500.796875 C 278.535156 471.917969 282.042969 449.78125 283.933594 432.507812 C 288.925781 387.429688 261.128906 371.636719 248.847656 384.730469 C 251.277344 361.515625 230.226562 354.363281 218.082031 365.835938 C 218.757812 361.652344 216.734375 355.578125 212.007812 351.527344 C 204.722656 345.859375 199.730469 347.480469 199.730469 347.480469 C 195.007812 347.75 189.339844 349.503906 182.863281 353.957031 C 176.789062 358.007812 172.066406 363.539062 167.074219 371.367188 C 167.75 368.535156 168.289062 365.835938 168.964844 363.136719 C 184.078125 300.105469 225.773438 246.527344 244.125 225.335938 C 254.246094 221.152344 261.128906 216.699219 262.074219 211.839844 C 263.421875 204.550781 168.019531 213.863281 160.597656 218.859375 C 149.800781 226.011719 161.675781 230.332031 168.558594 227.632812 C 153.3125 234.378906 144.132812 246.929688 159.519531 247.066406 C 148.046875 256.109375 99.605469 299.160156 79.902344 396.472656 C 54.398438 362.460938 24.710938 294.4375 96.90625 205.765625 C 94.746094 178.503906 101.359375 84.972656 159.246094 22.351562 C 167.34375 18.300781 210.253906 42.460938 253.976562 82.679688 C 245.878906 85.378906 237.648438 88.753906 229.6875 92.667969 C 232.789062 96.175781 273.273438 83.085938 335.34375 83.085938 C 397.417969 83.085938 438.035156 96.175781 441.003906 92.667969 C 433.042969 88.617188 424.8125 85.378906 416.714844 82.679688 C 460.433594 42.460938 503.347656 18.167969 511.441406 22.351562 C 560.15625 80.789062 577.023438 161.632812 573.246094 205.765625 C 646.246094 295.519531 614.941406 364.214844 589.304688 397.820312 C 569.738281 299.433594 520.886719 256.109375 509.285156 247.066406 C 524.800781 246.929688 515.492188 234.378906 500.242188 227.632812 C 507.125 230.332031 519 226.144531 508.203125 218.859375 C 500.78125 213.863281 405.378906 204.550781 406.730469 211.839844 C 407.671875 216.699219 414.554688 221.152344 424.675781 225.335938 C 443.027344 246.660156 484.722656 300.105469 499.835938 363.136719 C 500.511719 366.105469 501.1875 369.074219 501.863281 372.042969 C 496.734375 363.808594 491.875 358.140625 485.667969 353.957031 C 479.191406 349.640625 473.523438 347.75 468.800781 347.480469 C 468.800781 347.480469 463.808594 345.859375 456.523438 351.527344 C 451.796875 355.578125 449.773438 361.652344 450.449219 365.835938 C 438.304688 354.363281 417.253906 361.515625 419.683594 384.730469 C 407.402344 371.636719 379.605469 387.5625 384.597656 432.507812 C 386.488281 449.78125 390.132812 472.050781 396.742188 500.796875 L 399.847656 513.890625 L 399.980469 514.429688 C 400.519531 516.859375 401.464844 520.503906 402.679688 524.957031 L 414.421875 524.957031 C 407.539062 500.394531 401.195312 477.046875 399.035156 467.191406 C 389.1875 422.382812 392.964844 396.335938 406.1875 390.128906 C 414.554688 386.214844 428.320312 400.386719 428.320312 400.386719 C 428.320312 400.386719 425.082031 377.980469 436.28125 372.179688 C 445.320312 367.589844 451.257812 376.632812 456.792969 385.132812 C 450.316406 361.921875 467.992188 347.882812 485.667969 365.160156 C 494.84375 374.203125 500.917969 384.460938 507.125 400.65625 C 517.246094 462.332031 518.863281 524.957031 518.863281 524.957031 L 529.792969 524.957031 C 527.90625 502.824219 523.992188 473.265625 520.617188 434.53125 C 510.632812 321.703125 462.054688 256.109375 437.765625 229.925781 C 454.765625 235.324219 475.953125 240.183594 493.496094 244.5 C 496.058594 245.175781 498.488281 245.582031 500.511719 245.984375 C 511.171875 256.378906 556.648438 303.480469 573.917969 371.636719 C 590.921875 438.582031 593.082031 524.957031 593.082031 524.957031 L 604.011719 524.957031 C 602.121094 504.039062 598.210938 475.964844 594.835938 439.390625 C 594.429688 430.480469 593.351562 421.84375 592 413.476562 Z M 277.320312 149.621094 C 269.898438 155.019531 265.175781 161.09375 252.355469 163.386719 C 248.039062 164.199219 244.125 165.546875 244.125 169.460938 C 243.992188 173.242188 249.792969 174.320312 254.109375 173.644531 C 264.230469 172.027344 275.160156 168.382812 283.933594 162.984375 C 292.839844 157.449219 286.226562 144.222656 277.320312 149.621094 Z M 361.792969 247.742188 C 359.769531 254.894531 356.800781 260.15625 354.371094 259.347656 C 351.808594 258.539062 349.648438 241.128906 349.242188 231.410156 C 344.25 226.550781 338.988281 223.445312 333.859375 223.3125 C 307.414062 224.390625 279.34375 299.972656 287.847656 305.371094 C 298.777344 312.117188 322.121094 314.816406 333.859375 314.816406 C 345.601562 314.816406 368.808594 312.117188 379.875 305.371094 C 385.136719 301.996094 375.960938 270.683594 361.792969 247.742188 Z M 501.050781 53.933594 C 501.050781 53.933594 512.65625 102.652344 506.316406 142.605469 C 515.894531 146.652344 546.527344 187.410156 546.527344 187.410156 C 546.527344 187.410156 541.265625 160.148438 519.539062 136.800781 C 524.261719 110.347656 515.761719 67.699219 501.050781 53.933594 Z M 147.914062 136.800781 C 126.1875 160.148438 120.925781 187.410156 120.925781 187.410156 C 120.925781 187.410156 151.691406 146.652344 161.136719 142.605469 C 154.796875 102.652344 166.398438 53.933594 166.398438 53.933594 C 151.554688 67.699219 143.054688 110.347656 147.914062 136.800781 Z M 147.914062 136.800781 " fill-opacity="1" fill-rule="nonzero"/></g><path fill="#ef5454" d="M 367.730469 282.292969 C 370.292969 290.792969 370.96875 297.273438 368.945312 298.621094 C 360.578125 303.886719 342.632812 305.910156 333.726562 305.910156 C 324.683594 305.910156 306.871094 303.886719 298.507812 298.621094 C 296.753906 297.542969 297.023438 292.550781 298.777344 285.800781 C 331.972656 253.410156 356.800781 270.550781 367.730469 282.292969 Z M 367.730469 282.292969 C 370.292969 290.792969 370.96875 297.273438 368.945312 298.621094 C 360.578125 303.886719 342.632812 305.910156 333.726562 305.910156 C 324.683594 305.910156 306.871094 303.886719 298.507812 298.621094 C 296.753906 297.542969 297.023438 292.550781 298.777344 285.800781 C 331.972656 253.410156 356.800781 270.550781 367.730469 282.292969 Z M 367.730469 282.292969 " fill-opacity="1" fill-rule="nonzero"/></svg>